<svg width="100" height="100" viewBox="0 0 100 100" fill="none" xmlns="http://www.w3.org/2000/svg">
            <path d="M31.25 0C26.6211 0 22.5781 2.51953 20.4297 6.25H9.375C4.19922 6.25 0 10.4492 0 15.625V78.125C0 83.3008 4.19922 87.5 9.375 87.5H37.5V34.375C37.5 25.7422 44.4922 18.75 53.125 18.75H62.5V15.625C62.5 10.4492 58.3008 6.25 53.125 6.25H42.0703C39.9219 2.51953 35.8789 0 31.25 0ZM53.125 25C47.9492 25 43.75 29.1992 43.75 34.375V90.625C43.75 95.8008 47.9492 100 53.125 100H90.625C95.8008 100 100 95.8008 100 90.625V50H81.25C77.793 50 75 47.207 75 43.75V25H53.125ZM31.25 7.8125C32.4932 7.8125 33.6855 8.30636 34.5646 9.18544C35.4436 10.0645 35.9375 11.2568 35.9375 12.5C35.9375 13.7432 35.4436 14.9355 34.5646 15.8146C33.6855 16.6936 32.4932 17.1875 31.25 17.1875C30.0068 17.1875 28.8145 16.6936 27.9354 15.8146C27.0564 14.9355 26.5625 13.7432 26.5625 12.5C26.5625 11.2568 27.0564 10.0645 27.9354 9.18544C28.8145 8.30636 30.0068 7.8125 31.25 7.8125ZM81.25 25V43.75H100L81.25 25Z" fill="#1f2937" />
          </svg>