<svg width="101" height="101" viewBox="0 0 101 101" fill="none" xmlns="http://www.w3.org/2000/svg">
            <path d="M50.75 86.75C38.25 86.75 27.2 80.35 20.75 70.75C20.9 60.75 40.75 55.25 50.75 55.25C60.75 55.25 80.6 60.75 80.75 70.75C77.4444 75.672 72.9793 79.7058 67.7478 82.4959C62.5163 85.286 56.679 86.7469 50.75 86.75ZM50.75 15.75C54.7282 15.75 58.5436 17.3304 61.3566 20.1434C64.1696 22.9564 65.75 26.7718 65.75 30.75C65.75 34.7282 64.1696 38.5436 61.3566 41.3566C58.5436 44.1696 54.7282 45.75 50.75 45.75C46.7718 45.75 42.9564 44.1696 40.1434 41.3566C37.3304 38.5436 35.75 34.7282 35.75 30.75C35.75 26.7718 37.3304 22.9564 40.1434 20.1434C42.9564 17.3304 46.7718 15.75 50.75 15.75ZM50.75 0.75C44.1839 0.75 37.6821 2.04329 31.6158 4.55602C25.5495 7.06876 20.0376 10.7517 15.3947 15.3947C6.01784 24.7715 0.75 37.4892 0.75 50.75C0.75 64.0108 6.01784 76.7285 15.3947 86.1053C20.0376 90.7483 25.5495 94.4312 31.6158 96.944C37.6821 99.4567 44.1839 100.75 50.75 100.75C64.0108 100.75 76.7285 95.4822 86.1053 86.1053C95.4822 76.7285 100.75 64.0108 100.75 50.75C100.75 23.1 78.25 0.75 50.75 0.75Z" fill="#1f2937" />
          </svg>